<mxfile host="Electron" agent="Mozilla/5.0 (Windows NT 10.0; Win64; x64) AppleWebKit/537.36 (KHTML, like Gecko) draw.io/26.1.1 Chrome/132.0.6834.210 Electron/34.3.3 Safari/537.36" version="26.1.1">
  <diagram name="Page-1" id="5f0bae14-7c28-e335-631c-24af17079c00">
    <mxGraphModel dx="3385" dy="1640" grid="1" gridSize="10" guides="1" tooltips="1" connect="1" arrows="1" fold="1" page="1" pageScale="1" pageWidth="1100" pageHeight="850" background="none" math="0" shadow="0">
      <root>
        <mxCell id="0" />
        <mxCell id="1" parent="0" />
        <mxCell id="39150e848f15840c-1" value="Feed" style="verticalAlign=top;align=left;spacingTop=8;spacingLeft=2;spacingRight=12;shape=cube;size=10;direction=south;fontStyle=4;html=1;rounded=0;shadow=0;comic=0;labelBackgroundColor=none;strokeWidth=1;fontFamily=Verdana;fontSize=12" parent="1" vertex="1">
          <mxGeometry x="517.5" y="40" width="360" height="350" as="geometry" />
        </mxCell>
        <mxCell id="maH7Wjx6wbgfMxvsLwRA-1" value="&lt;b&gt;Utium/Social Component Diagram LVL 1:&lt;/b&gt;" style="text;html=1;align=center;verticalAlign=middle;resizable=0;points=[];autosize=1;strokeColor=none;fillColor=none;" parent="1" vertex="1">
          <mxGeometry width="260" height="30" as="geometry" />
        </mxCell>
        <mxCell id="maH7Wjx6wbgfMxvsLwRA-2" value="User&amp;nbsp;&lt;div&gt;Interaction&lt;/div&gt;" style="shape=component;align=left;spacingLeft=36;rounded=0;shadow=0;comic=0;labelBackgroundColor=none;strokeWidth=1;fontFamily=Verdana;fontSize=12;html=1;" parent="1" vertex="1">
          <mxGeometry x="727.5" y="70" width="120" height="60" as="geometry" />
        </mxCell>
        <mxCell id="maH7Wjx6wbgfMxvsLwRA-3" value="Algorithm &amp;amp;&lt;div&gt;Sorting&lt;/div&gt;" style="shape=component;align=left;spacingLeft=36;rounded=0;shadow=0;comic=0;labelBackgroundColor=none;strokeWidth=1;fontFamily=Verdana;fontSize=12;html=1;" parent="1" vertex="1">
          <mxGeometry x="542.5" y="150" width="120" height="60" as="geometry" />
        </mxCell>
        <mxCell id="maH7Wjx6wbgfMxvsLwRA-5" value="Notification&amp;nbsp;&lt;div&gt;Manager&lt;/div&gt;" style="shape=component;align=left;spacingLeft=36;rounded=0;shadow=0;comic=0;labelBackgroundColor=none;strokeWidth=1;fontFamily=Verdana;fontSize=12;html=1;" parent="1" vertex="1">
          <mxGeometry x="722.5" y="310" width="120" height="60" as="geometry" />
        </mxCell>
        <mxCell id="maH7Wjx6wbgfMxvsLwRA-6" value="Post Discovery&lt;div&gt;&amp;amp; Filtering&lt;/div&gt;" style="shape=component;align=left;spacingLeft=36;rounded=0;shadow=0;comic=0;labelBackgroundColor=none;strokeWidth=1;fontFamily=Verdana;fontSize=12;html=1;" parent="1" vertex="1">
          <mxGeometry x="537.5" y="230" width="130" height="60" as="geometry" />
        </mxCell>
        <mxCell id="maH7Wjx6wbgfMxvsLwRA-7" value="Moderation &amp;amp;&lt;div&gt;Reporting&lt;/div&gt;" style="shape=component;align=left;spacingLeft=36;rounded=0;shadow=0;comic=0;labelBackgroundColor=none;strokeWidth=1;fontFamily=Verdana;fontSize=12;html=1;" parent="1" vertex="1">
          <mxGeometry x="717.5" y="230" width="130" height="60" as="geometry" />
        </mxCell>
        <mxCell id="maH7Wjx6wbgfMxvsLwRA-8" value="Stories &amp;amp;&lt;div&gt;Temp. Posts&lt;/div&gt;" style="shape=component;align=left;spacingLeft=36;rounded=0;shadow=0;comic=0;labelBackgroundColor=none;strokeWidth=1;fontFamily=Verdana;fontSize=12;html=1;" parent="1" vertex="1">
          <mxGeometry x="532.5" y="70" width="130" height="60" as="geometry" />
        </mxCell>
        <mxCell id="maH7Wjx6wbgfMxvsLwRA-9" value="Feed&amp;nbsp;&lt;div&gt;P&lt;span style=&quot;background-color: transparent; color: light-dark(rgb(0, 0, 0), rgb(255, 255, 255));&quot;&gt;agination &amp;amp;&lt;/span&gt;&lt;/div&gt;&lt;div&gt;&lt;span style=&quot;background-color: transparent; color: light-dark(rgb(0, 0, 0), rgb(255, 255, 255));&quot;&gt;Performance&lt;/span&gt;&lt;/div&gt;" style="shape=component;align=left;spacingLeft=36;rounded=0;shadow=0;comic=0;labelBackgroundColor=none;strokeWidth=1;fontFamily=Verdana;fontSize=12;html=1;" parent="1" vertex="1">
          <mxGeometry x="717.5" y="150" width="130" height="60" as="geometry" />
        </mxCell>
        <mxCell id="maH7Wjx6wbgfMxvsLwRA-10" value="Admin &amp;amp;&lt;div&gt;Analytics&lt;/div&gt;" style="shape=component;align=left;spacingLeft=36;rounded=0;shadow=0;comic=0;labelBackgroundColor=none;strokeWidth=1;fontFamily=Verdana;fontSize=12;html=1;" parent="1" vertex="1">
          <mxGeometry x="537.5" y="310" width="130" height="60" as="geometry" />
        </mxCell>
        <mxCell id="maH7Wjx6wbgfMxvsLwRA-11" value="Posts" style="verticalAlign=top;align=left;spacingTop=8;spacingLeft=2;spacingRight=12;shape=cube;size=10;direction=south;fontStyle=4;html=1;rounded=0;shadow=0;comic=0;labelBackgroundColor=none;strokeWidth=1;fontFamily=Verdana;fontSize=12" parent="1" vertex="1">
          <mxGeometry x="1130" y="30" width="360" height="440" as="geometry" />
        </mxCell>
        <mxCell id="maH7Wjx6wbgfMxvsLwRA-12" value="Post&amp;nbsp;&lt;div&gt;Management&lt;/div&gt;" style="shape=component;align=left;spacingLeft=36;rounded=0;shadow=0;comic=0;labelBackgroundColor=none;strokeWidth=1;fontFamily=Verdana;fontSize=12;html=1;" parent="1" vertex="1">
          <mxGeometry x="1150" y="70" width="120" height="60" as="geometry" />
        </mxCell>
        <mxCell id="maH7Wjx6wbgfMxvsLwRA-13" value="Catagories &amp;amp;&lt;div&gt;Tags&lt;/div&gt;" style="shape=component;align=left;spacingLeft=36;rounded=0;shadow=0;comic=0;labelBackgroundColor=none;strokeWidth=1;fontFamily=Verdana;fontSize=12;html=1;" parent="1" vertex="1">
          <mxGeometry x="1330" y="70" width="120" height="60" as="geometry" />
        </mxCell>
        <mxCell id="maH7Wjx6wbgfMxvsLwRA-14" value="Media &amp;amp;&lt;div&gt;Attachments&lt;/div&gt;" style="shape=component;align=left;spacingLeft=36;rounded=0;shadow=0;comic=0;labelBackgroundColor=none;strokeWidth=1;fontFamily=Verdana;fontSize=12;html=1;" parent="1" vertex="1">
          <mxGeometry x="1150" y="150" width="120" height="60" as="geometry" />
        </mxCell>
        <mxCell id="maH7Wjx6wbgfMxvsLwRA-15" value="User&amp;nbsp;&lt;div&gt;Interaction&lt;/div&gt;" style="shape=component;align=left;spacingLeft=36;rounded=0;shadow=0;comic=0;labelBackgroundColor=none;strokeWidth=1;fontFamily=Verdana;fontSize=12;html=1;" parent="1" vertex="1">
          <mxGeometry x="1150" y="310" width="120" height="60" as="geometry" />
        </mxCell>
        <mxCell id="maH7Wjx6wbgfMxvsLwRA-16" value="SEO &amp;amp;&amp;nbsp;&lt;div&gt;MetaData&lt;/div&gt;" style="shape=component;align=left;spacingLeft=36;rounded=0;shadow=0;comic=0;labelBackgroundColor=none;strokeWidth=1;fontFamily=Verdana;fontSize=12;html=1;" parent="1" vertex="1">
          <mxGeometry x="1150" y="230" width="120" height="60" as="geometry" />
        </mxCell>
        <mxCell id="maH7Wjx6wbgfMxvsLwRA-17" value="Related Posts &amp;amp;&lt;div&gt;Recomendations&lt;/div&gt;" style="shape=component;align=left;spacingLeft=36;rounded=0;shadow=0;comic=0;labelBackgroundColor=none;strokeWidth=1;fontFamily=Verdana;fontSize=12;html=1;" parent="1" vertex="1">
          <mxGeometry x="1310" y="230" width="140" height="60" as="geometry" />
        </mxCell>
        <mxCell id="maH7Wjx6wbgfMxvsLwRA-18" value="Scheduled&lt;div&gt;Posting&lt;/div&gt;" style="shape=component;align=left;spacingLeft=36;rounded=0;shadow=0;comic=0;labelBackgroundColor=none;strokeWidth=1;fontFamily=Verdana;fontSize=12;html=1;" parent="1" vertex="1">
          <mxGeometry x="1330" y="310" width="120" height="60" as="geometry" />
        </mxCell>
        <mxCell id="maH7Wjx6wbgfMxvsLwRA-19" value="Moderaton &amp;amp;&lt;div&gt;Admin Contr.&lt;/div&gt;" style="shape=component;align=left;spacingLeft=36;rounded=0;shadow=0;comic=0;labelBackgroundColor=none;strokeWidth=1;fontFamily=Verdana;fontSize=12;html=1;" parent="1" vertex="1">
          <mxGeometry x="1330" y="150" width="120" height="60" as="geometry" />
        </mxCell>
        <mxCell id="maH7Wjx6wbgfMxvsLwRA-20" value="Analytics &amp;amp;&lt;div&gt;Insights&lt;/div&gt;" style="shape=component;align=left;spacingLeft=36;rounded=0;shadow=0;comic=0;labelBackgroundColor=none;strokeWidth=1;fontFamily=Verdana;fontSize=12;html=1;" parent="1" vertex="1">
          <mxGeometry x="1250" y="390" width="120" height="60" as="geometry" />
        </mxCell>
        <mxCell id="maH7Wjx6wbgfMxvsLwRA-21" value="Messaging" style="verticalAlign=top;align=left;spacingTop=8;spacingLeft=2;spacingRight=12;shape=cube;size=10;direction=south;fontStyle=4;html=1;rounded=0;shadow=0;comic=0;labelBackgroundColor=none;strokeWidth=1;fontFamily=Verdana;fontSize=12" parent="1" vertex="1">
          <mxGeometry x="1280" y="560" width="360" height="470" as="geometry" />
        </mxCell>
        <mxCell id="maH7Wjx6wbgfMxvsLwRA-22" value="Message&amp;nbsp;&lt;div&gt;Management&lt;/div&gt;" style="shape=component;align=left;spacingLeft=36;rounded=0;shadow=0;comic=0;labelBackgroundColor=none;strokeWidth=1;fontFamily=Verdana;fontSize=12;html=1;" parent="1" vertex="1">
          <mxGeometry x="1310" y="610" width="120" height="60" as="geometry" />
        </mxCell>
        <mxCell id="maH7Wjx6wbgfMxvsLwRA-25" value="Conversations&lt;div&gt;&amp;amp; Threads&lt;/div&gt;" style="shape=component;align=left;spacingLeft=36;rounded=0;shadow=0;comic=0;labelBackgroundColor=none;strokeWidth=1;fontFamily=Verdana;fontSize=12;html=1;" parent="1" vertex="1">
          <mxGeometry x="1470" y="610" width="130" height="60" as="geometry" />
        </mxCell>
        <mxCell id="maH7Wjx6wbgfMxvsLwRA-26" value="Real-Time&amp;nbsp;&lt;div&gt;Messaging&lt;/div&gt;" style="shape=component;align=left;spacingLeft=36;rounded=0;shadow=0;comic=0;labelBackgroundColor=none;strokeWidth=1;fontFamily=Verdana;fontSize=12;html=1;" parent="1" vertex="1">
          <mxGeometry x="1310" y="705" width="110" height="60" as="geometry" />
        </mxCell>
        <mxCell id="BYLP76rP4EXlYDDDYnYO-1" value="Notifications" style="verticalAlign=top;align=left;spacingTop=8;spacingLeft=2;spacingRight=12;shape=cube;size=10;direction=south;fontStyle=4;html=1;rounded=0;shadow=0;comic=0;labelBackgroundColor=none;strokeWidth=1;fontFamily=Verdana;fontSize=12" vertex="1" parent="1">
          <mxGeometry x="640" y="1160" width="360" height="520" as="geometry" />
        </mxCell>
        <mxCell id="BYLP76rP4EXlYDDDYnYO-2" value="Notifaications&lt;div&gt;&amp;amp; Alerts&lt;/div&gt;" style="shape=component;align=left;spacingLeft=36;rounded=0;shadow=0;comic=0;labelBackgroundColor=none;strokeWidth=1;fontFamily=Verdana;fontSize=12;html=1;" vertex="1" parent="1">
          <mxGeometry x="1310" y="800" width="130" height="60" as="geometry" />
        </mxCell>
        <mxCell id="BYLP76rP4EXlYDDDYnYO-3" value="Attachments&lt;div&gt;&amp;amp; Media&lt;/div&gt;" style="shape=component;align=left;spacingLeft=36;rounded=0;shadow=0;comic=0;labelBackgroundColor=none;strokeWidth=1;fontFamily=Verdana;fontSize=12;html=1;" vertex="1" parent="1">
          <mxGeometry x="1470" y="705" width="130" height="60" as="geometry" />
        </mxCell>
        <mxCell id="BYLP76rP4EXlYDDDYnYO-4" value="Privacy &amp;amp;&amp;nbsp;&lt;div&gt;Security&lt;/div&gt;" style="shape=component;align=left;spacingLeft=36;rounded=0;shadow=0;comic=0;labelBackgroundColor=none;strokeWidth=1;fontFamily=Verdana;fontSize=12;html=1;" vertex="1" parent="1">
          <mxGeometry x="1470" y="795" width="130" height="60" as="geometry" />
        </mxCell>
        <mxCell id="BYLP76rP4EXlYDDDYnYO-5" value="Search &amp;amp;&amp;nbsp;&lt;div&gt;Filters&lt;/div&gt;" style="shape=component;align=left;spacingLeft=36;rounded=0;shadow=0;comic=0;labelBackgroundColor=none;strokeWidth=1;fontFamily=Verdana;fontSize=12;html=1;" vertex="1" parent="1">
          <mxGeometry x="1310" y="885" width="110" height="60" as="geometry" />
        </mxCell>
        <mxCell id="BYLP76rP4EXlYDDDYnYO-6" value="AI &amp;amp; Smart&lt;div&gt;Features&lt;/div&gt;" style="shape=component;align=left;spacingLeft=36;rounded=0;shadow=0;comic=0;labelBackgroundColor=none;strokeWidth=1;fontFamily=Verdana;fontSize=12;html=1;" vertex="1" parent="1">
          <mxGeometry x="1490" y="885" width="110" height="60" as="geometry" />
        </mxCell>
        <mxCell id="BYLP76rP4EXlYDDDYnYO-7" value="Adimin &amp;amp;&amp;nbsp;&lt;div&gt;Moderation&lt;/div&gt;" style="shape=component;align=left;spacingLeft=36;rounded=0;shadow=0;comic=0;labelBackgroundColor=none;strokeWidth=1;fontFamily=Verdana;fontSize=12;html=1;" vertex="1" parent="1">
          <mxGeometry x="1405" y="960" width="110" height="60" as="geometry" />
        </mxCell>
        <mxCell id="BYLP76rP4EXlYDDDYnYO-9" value="Groups" style="verticalAlign=top;align=left;spacingTop=8;spacingLeft=2;spacingRight=12;shape=cube;size=10;direction=south;fontStyle=4;html=1;rounded=0;shadow=0;comic=0;labelBackgroundColor=none;strokeWidth=1;fontFamily=Verdana;fontSize=12" vertex="1" parent="1">
          <mxGeometry x="50" y="1200" width="330" height="470" as="geometry" />
        </mxCell>
        <mxCell id="BYLP76rP4EXlYDDDYnYO-10" value="Notification&amp;nbsp;&lt;div&gt;Model&lt;/div&gt;" style="shape=component;align=left;spacingLeft=36;rounded=0;shadow=0;comic=0;labelBackgroundColor=none;strokeWidth=1;fontFamily=Verdana;fontSize=12;html=1;" vertex="1" parent="1">
          <mxGeometry x="660" y="1220" width="120" height="60" as="geometry" />
        </mxCell>
        <mxCell id="BYLP76rP4EXlYDDDYnYO-11" value="Notification&amp;nbsp;&lt;div&gt;Types&lt;/div&gt;" style="shape=component;align=left;spacingLeft=36;rounded=0;shadow=0;comic=0;labelBackgroundColor=none;strokeWidth=1;fontFamily=Verdana;fontSize=12;html=1;" vertex="1" parent="1">
          <mxGeometry x="830" y="1220" width="120" height="60" as="geometry" />
        </mxCell>
        <mxCell id="BYLP76rP4EXlYDDDYnYO-12" value="Notification&amp;nbsp;&lt;div&gt;Delivery&lt;/div&gt;&lt;div&gt;Methods&lt;/div&gt;" style="shape=component;align=left;spacingLeft=36;rounded=0;shadow=0;comic=0;labelBackgroundColor=none;strokeWidth=1;fontFamily=Verdana;fontSize=12;html=1;" vertex="1" parent="1">
          <mxGeometry x="660" y="1310" width="120" height="60" as="geometry" />
        </mxCell>
        <mxCell id="BYLP76rP4EXlYDDDYnYO-13" value="Notification&amp;nbsp;&lt;div&gt;Settings&lt;/div&gt;" style="shape=component;align=left;spacingLeft=36;rounded=0;shadow=0;comic=0;labelBackgroundColor=none;strokeWidth=1;fontFamily=Verdana;fontSize=12;html=1;" vertex="1" parent="1">
          <mxGeometry x="830" y="1310" width="120" height="60" as="geometry" />
        </mxCell>
        <mxCell id="BYLP76rP4EXlYDDDYnYO-14" value="Real-Time&lt;div&gt;Notification&lt;/div&gt;&lt;div&gt;Updates&lt;/div&gt;" style="shape=component;align=left;spacingLeft=36;rounded=0;shadow=0;comic=0;labelBackgroundColor=none;strokeWidth=1;fontFamily=Verdana;fontSize=12;html=1;" vertex="1" parent="1">
          <mxGeometry x="660" y="1400" width="120" height="60" as="geometry" />
        </mxCell>
        <mxCell id="BYLP76rP4EXlYDDDYnYO-15" value="Notification&lt;div&gt;History &amp;amp;&amp;nbsp;&lt;/div&gt;&lt;div&gt;Managemant&lt;/div&gt;" style="shape=component;align=left;spacingLeft=36;rounded=0;shadow=0;comic=0;labelBackgroundColor=none;strokeWidth=1;fontFamily=Verdana;fontSize=12;html=1;" vertex="1" parent="1">
          <mxGeometry x="830" y="1400" width="120" height="60" as="geometry" />
        </mxCell>
        <mxCell id="BYLP76rP4EXlYDDDYnYO-16" value="Admin &amp;amp;&lt;div&gt;Moderation&lt;/div&gt;" style="shape=component;align=left;spacingLeft=36;rounded=0;shadow=0;comic=0;labelBackgroundColor=none;strokeWidth=1;fontFamily=Verdana;fontSize=12;html=1;" vertex="1" parent="1">
          <mxGeometry x="660" y="1490" width="120" height="60" as="geometry" />
        </mxCell>
        <mxCell id="BYLP76rP4EXlYDDDYnYO-17" value="Analytics &amp;amp;&lt;div&gt;Insights&lt;/div&gt;" style="shape=component;align=left;spacingLeft=36;rounded=0;shadow=0;comic=0;labelBackgroundColor=none;strokeWidth=1;fontFamily=Verdana;fontSize=12;html=1;" vertex="1" parent="1">
          <mxGeometry x="830" y="1490" width="120" height="60" as="geometry" />
        </mxCell>
        <mxCell id="BYLP76rP4EXlYDDDYnYO-18" value="Notification&lt;div&gt;Templates&lt;/div&gt;" style="shape=component;align=left;spacingLeft=36;rounded=0;shadow=0;comic=0;labelBackgroundColor=none;strokeWidth=1;fontFamily=Verdana;fontSize=12;html=1;" vertex="1" parent="1">
          <mxGeometry x="660" y="1580" width="120" height="60" as="geometry" />
        </mxCell>
        <mxCell id="BYLP76rP4EXlYDDDYnYO-19" value="Custom&lt;div&gt;Notification&lt;/div&gt;&lt;div&gt;Triggers&lt;/div&gt;" style="shape=component;align=left;spacingLeft=36;rounded=0;shadow=0;comic=0;labelBackgroundColor=none;strokeWidth=1;fontFamily=Verdana;fontSize=12;html=1;" vertex="1" parent="1">
          <mxGeometry x="830" y="1580" width="120" height="60" as="geometry" />
        </mxCell>
        <mxCell id="BYLP76rP4EXlYDDDYnYO-20" value="&lt;div&gt;Group&lt;/div&gt;&lt;div&gt;Management&lt;/div&gt;" style="shape=component;align=left;spacingLeft=36;rounded=0;shadow=0;comic=0;labelBackgroundColor=none;strokeWidth=1;fontFamily=Verdana;fontSize=12;html=1;" vertex="1" parent="1">
          <mxGeometry x="60" y="1240" width="120" height="60" as="geometry" />
        </mxCell>
        <mxCell id="BYLP76rP4EXlYDDDYnYO-21" value="&lt;div&gt;Group&lt;/div&gt;&lt;div&gt;Content &amp;amp;&lt;/div&gt;&lt;div&gt;Discussions&lt;/div&gt;" style="shape=component;align=left;spacingLeft=36;rounded=0;shadow=0;comic=0;labelBackgroundColor=none;strokeWidth=1;fontFamily=Verdana;fontSize=12;html=1;" vertex="1" parent="1">
          <mxGeometry x="60" y="1510" width="120" height="60" as="geometry" />
        </mxCell>
        <mxCell id="BYLP76rP4EXlYDDDYnYO-22" value="&lt;div&gt;Group&lt;/div&gt;&lt;div&gt;Interation&lt;/div&gt;" style="shape=component;align=left;spacingLeft=36;rounded=0;shadow=0;comic=0;labelBackgroundColor=none;strokeWidth=1;fontFamily=Verdana;fontSize=12;html=1;" vertex="1" parent="1">
          <mxGeometry x="60" y="1330" width="120" height="60" as="geometry" />
        </mxCell>
        <mxCell id="BYLP76rP4EXlYDDDYnYO-23" value="&lt;div&gt;Membership&lt;/div&gt;&lt;div&gt;Management&lt;/div&gt;" style="shape=component;align=left;spacingLeft=36;rounded=0;shadow=0;comic=0;labelBackgroundColor=none;strokeWidth=1;fontFamily=Verdana;fontSize=12;html=1;" vertex="1" parent="1">
          <mxGeometry x="230" y="1330" width="120" height="60" as="geometry" />
        </mxCell>
        <mxCell id="BYLP76rP4EXlYDDDYnYO-24" value="&lt;div&gt;Group&lt;/div&gt;&lt;div&gt;Notifications&lt;/div&gt;" style="shape=component;align=left;spacingLeft=36;rounded=0;shadow=0;comic=0;labelBackgroundColor=none;strokeWidth=1;fontFamily=Verdana;fontSize=12;html=1;" vertex="1" parent="1">
          <mxGeometry x="230" y="1420" width="120" height="60" as="geometry" />
        </mxCell>
        <mxCell id="BYLP76rP4EXlYDDDYnYO-25" value="&lt;div&gt;Group&lt;/div&gt;&lt;div&gt;Moderation&lt;/div&gt;" style="shape=component;align=left;spacingLeft=36;rounded=0;shadow=0;comic=0;labelBackgroundColor=none;strokeWidth=1;fontFamily=Verdana;fontSize=12;html=1;" vertex="1" parent="1">
          <mxGeometry x="60" y="1420" width="120" height="60" as="geometry" />
        </mxCell>
        <mxCell id="BYLP76rP4EXlYDDDYnYO-26" value="&lt;div&gt;Group&lt;/div&gt;&lt;div&gt;Analytics&lt;/div&gt;" style="shape=component;align=left;spacingLeft=36;rounded=0;shadow=0;comic=0;labelBackgroundColor=none;strokeWidth=1;fontFamily=Verdana;fontSize=12;html=1;" vertex="1" parent="1">
          <mxGeometry x="230" y="1240" width="120" height="60" as="geometry" />
        </mxCell>
        <mxCell id="BYLP76rP4EXlYDDDYnYO-27" value="&lt;div&gt;Group&lt;/div&gt;&lt;div&gt;Search &amp;amp;&lt;/div&gt;&lt;div&gt;Discovery&lt;/div&gt;" style="shape=component;align=left;spacingLeft=36;rounded=0;shadow=0;comic=0;labelBackgroundColor=none;strokeWidth=1;fontFamily=Verdana;fontSize=12;html=1;" vertex="1" parent="1">
          <mxGeometry x="230" y="1510" width="120" height="60" as="geometry" />
        </mxCell>
        <mxCell id="BYLP76rP4EXlYDDDYnYO-28" value="&lt;div&gt;Group&lt;/div&gt;&lt;div&gt;Settings &amp;amp;&lt;/div&gt;&lt;div&gt;Customization&lt;/div&gt;" style="shape=component;align=left;spacingLeft=36;rounded=0;shadow=0;comic=0;labelBackgroundColor=none;strokeWidth=1;fontFamily=Verdana;fontSize=12;html=1;" vertex="1" parent="1">
          <mxGeometry x="60" y="1590" width="130" height="60" as="geometry" />
        </mxCell>
        <mxCell id="BYLP76rP4EXlYDDDYnYO-29" value="&lt;div&gt;Group&lt;/div&gt;&lt;div&gt;Data &amp;amp; Privacy&lt;/div&gt;" style="shape=component;align=left;spacingLeft=36;rounded=0;shadow=0;comic=0;labelBackgroundColor=none;strokeWidth=1;fontFamily=Verdana;fontSize=12;html=1;" vertex="1" parent="1">
          <mxGeometry x="220" y="1590" width="130" height="60" as="geometry" />
        </mxCell>
        <mxCell id="BYLP76rP4EXlYDDDYnYO-30" value="Friends" style="verticalAlign=top;align=left;spacingTop=8;spacingLeft=2;spacingRight=12;shape=cube;size=10;direction=south;fontStyle=4;html=1;rounded=0;shadow=0;comic=0;labelBackgroundColor=none;strokeWidth=1;fontFamily=Verdana;fontSize=12" vertex="1" parent="1">
          <mxGeometry x="1250" y="1120" width="330" height="520" as="geometry" />
        </mxCell>
        <mxCell id="BYLP76rP4EXlYDDDYnYO-31" value="Friendship&lt;div&gt;Model&lt;/div&gt;" style="shape=component;align=left;spacingLeft=36;rounded=0;shadow=0;comic=0;labelBackgroundColor=none;strokeWidth=1;fontFamily=Verdana;fontSize=12;html=1;" vertex="1" parent="1">
          <mxGeometry x="1265" y="1160" width="120" height="60" as="geometry" />
        </mxCell>
        <mxCell id="BYLP76rP4EXlYDDDYnYO-32" value="Friend&lt;div&gt;Requests&lt;/div&gt;" style="shape=component;align=left;spacingLeft=36;rounded=0;shadow=0;comic=0;labelBackgroundColor=none;strokeWidth=1;fontFamily=Verdana;fontSize=12;html=1;" vertex="1" parent="1">
          <mxGeometry x="1430" y="1160" width="120" height="60" as="geometry" />
        </mxCell>
        <mxCell id="BYLP76rP4EXlYDDDYnYO-33" value="Friend&amp;nbsp;&lt;span style=&quot;background-color: transparent; color: light-dark(rgb(0, 0, 0), rgb(255, 255, 255));&quot;&gt;List&lt;/span&gt;&lt;div&gt;&lt;span style=&quot;background-color: transparent; color: light-dark(rgb(0, 0, 0), rgb(255, 255, 255));&quot;&gt;Management&amp;nbsp;&lt;/span&gt;&lt;/div&gt;" style="shape=component;align=left;spacingLeft=36;rounded=0;shadow=0;comic=0;labelBackgroundColor=none;strokeWidth=1;fontFamily=Verdana;fontSize=12;html=1;" vertex="1" parent="1">
          <mxGeometry x="1350" y="1560" width="120" height="60" as="geometry" />
        </mxCell>
        <mxCell id="BYLP76rP4EXlYDDDYnYO-34" value="Mutual&amp;nbsp;&lt;div&gt;Friends&lt;/div&gt;" style="shape=component;align=left;spacingLeft=36;rounded=0;shadow=0;comic=0;labelBackgroundColor=none;strokeWidth=1;fontFamily=Verdana;fontSize=12;html=1;" vertex="1" parent="1">
          <mxGeometry x="1430" y="1240" width="120" height="60" as="geometry" />
        </mxCell>
        <mxCell id="BYLP76rP4EXlYDDDYnYO-35" value="Friendship&lt;div&gt;Privacy &amp;amp;&lt;/div&gt;&lt;div&gt;Permissions&lt;/div&gt;" style="shape=component;align=left;spacingLeft=36;rounded=0;shadow=0;comic=0;labelBackgroundColor=none;strokeWidth=1;fontFamily=Verdana;fontSize=12;html=1;" vertex="1" parent="1">
          <mxGeometry x="1265" y="1320" width="120" height="60" as="geometry" />
        </mxCell>
        <mxCell id="BYLP76rP4EXlYDDDYnYO-36" value="Friend&amp;nbsp;&lt;div&gt;Recomendations&lt;/div&gt;" style="shape=component;align=left;spacingLeft=36;rounded=0;shadow=0;comic=0;labelBackgroundColor=none;strokeWidth=1;fontFamily=Verdana;fontSize=12;html=1;" vertex="1" parent="1">
          <mxGeometry x="1410" y="1320" width="140" height="60" as="geometry" />
        </mxCell>
        <mxCell id="BYLP76rP4EXlYDDDYnYO-37" value="Social&amp;nbsp;&lt;div&gt;Interactions&amp;nbsp;&lt;/div&gt;&lt;div&gt;&amp;amp; Activities&lt;/div&gt;" style="shape=component;align=left;spacingLeft=36;rounded=0;shadow=0;comic=0;labelBackgroundColor=none;strokeWidth=1;fontFamily=Verdana;fontSize=12;html=1;" vertex="1" parent="1">
          <mxGeometry x="1265" y="1400" width="120" height="60" as="geometry" />
        </mxCell>
        <mxCell id="BYLP76rP4EXlYDDDYnYO-38" value="Friendship&lt;div&gt;search &amp;amp;&lt;/div&gt;&lt;div&gt;Filtering&lt;/div&gt;" style="shape=component;align=left;spacingLeft=36;rounded=0;shadow=0;comic=0;labelBackgroundColor=none;strokeWidth=1;fontFamily=Verdana;fontSize=12;html=1;" vertex="1" parent="1">
          <mxGeometry x="1430" y="1400" width="120" height="60" as="geometry" />
        </mxCell>
        <mxCell id="BYLP76rP4EXlYDDDYnYO-39" value="Friendship&lt;div&gt;Notifications&lt;/div&gt;" style="shape=component;align=left;spacingLeft=36;rounded=0;shadow=0;comic=0;labelBackgroundColor=none;strokeWidth=1;fontFamily=Verdana;fontSize=12;html=1;" vertex="1" parent="1">
          <mxGeometry x="1265" y="1480" width="120" height="60" as="geometry" />
        </mxCell>
        <mxCell id="BYLP76rP4EXlYDDDYnYO-40" value="Admin &amp;amp;&lt;div&gt;Moderation&lt;/div&gt;" style="shape=component;align=left;spacingLeft=36;rounded=0;shadow=0;comic=0;labelBackgroundColor=none;strokeWidth=1;fontFamily=Verdana;fontSize=12;html=1;" vertex="1" parent="1">
          <mxGeometry x="1430" y="1480" width="120" height="60" as="geometry" />
        </mxCell>
        <mxCell id="BYLP76rP4EXlYDDDYnYO-41" value="&lt;div&gt;&lt;span style=&quot;background-color: transparent; color: light-dark(rgb(0, 0, 0), rgb(255, 255, 255));&quot;&gt;Friendship&lt;/span&gt;&lt;/div&gt;&lt;div&gt;&lt;span style=&quot;background-color: transparent; color: light-dark(rgb(0, 0, 0), rgb(255, 255, 255));&quot;&gt;Analytics&lt;/span&gt;&lt;/div&gt;" style="shape=component;align=left;spacingLeft=36;rounded=0;shadow=0;comic=0;labelBackgroundColor=none;strokeWidth=1;fontFamily=Verdana;fontSize=12;html=1;" vertex="1" parent="1">
          <mxGeometry x="1260" y="1240" width="125" height="60" as="geometry" />
        </mxCell>
        <mxCell id="BYLP76rP4EXlYDDDYnYO-42" value="Pages" style="verticalAlign=top;align=left;spacingTop=8;spacingLeft=2;spacingRight=12;shape=cube;size=10;direction=south;fontStyle=4;html=1;rounded=0;shadow=0;comic=0;labelBackgroundColor=none;strokeWidth=1;fontFamily=Verdana;fontSize=12" vertex="1" parent="1">
          <mxGeometry x="40" y="40" width="330" height="520" as="geometry" />
        </mxCell>
        <mxCell id="BYLP76rP4EXlYDDDYnYO-43" value="Page&amp;nbsp;&lt;div&gt;Management&lt;/div&gt;" style="shape=component;align=left;spacingLeft=36;rounded=0;shadow=0;comic=0;labelBackgroundColor=none;strokeWidth=1;fontFamily=Verdana;fontSize=12;html=1;" vertex="1" parent="1">
          <mxGeometry x="50" y="80" width="125" height="60" as="geometry" />
        </mxCell>
        <mxCell id="BYLP76rP4EXlYDDDYnYO-44" value="Page&amp;nbsp;&lt;div&gt;Content&lt;/div&gt;" style="shape=component;align=left;spacingLeft=36;rounded=0;shadow=0;comic=0;labelBackgroundColor=none;strokeWidth=1;fontFamily=Verdana;fontSize=12;html=1;" vertex="1" parent="1">
          <mxGeometry x="227.5" y="80" width="100" height="60" as="geometry" />
        </mxCell>
        <mxCell id="BYLP76rP4EXlYDDDYnYO-45" value="Page&amp;nbsp;&lt;div&gt;Interactions&lt;/div&gt;" style="shape=component;align=left;spacingLeft=36;rounded=0;shadow=0;comic=0;labelBackgroundColor=none;strokeWidth=1;fontFamily=Verdana;fontSize=12;html=1;" vertex="1" parent="1">
          <mxGeometry x="52.5" y="160" width="122.5" height="60" as="geometry" />
        </mxCell>
        <mxCell id="BYLP76rP4EXlYDDDYnYO-46" value="Page&amp;nbsp;&lt;div&gt;Analytics&lt;/div&gt;" style="shape=component;align=left;spacingLeft=36;rounded=0;shadow=0;comic=0;labelBackgroundColor=none;strokeWidth=1;fontFamily=Verdana;fontSize=12;html=1;" vertex="1" parent="1">
          <mxGeometry x="212.5" y="160" width="115" height="60" as="geometry" />
        </mxCell>
        <mxCell id="BYLP76rP4EXlYDDDYnYO-47" value="Page&amp;nbsp;&lt;div&gt;Notifications&lt;/div&gt;" style="shape=component;align=left;spacingLeft=36;rounded=0;shadow=0;comic=0;labelBackgroundColor=none;strokeWidth=1;fontFamily=Verdana;fontSize=12;html=1;" vertex="1" parent="1">
          <mxGeometry x="203.75" y="400" width="122.5" height="60" as="geometry" />
        </mxCell>
        <mxCell id="BYLP76rP4EXlYDDDYnYO-48" value="Page&amp;nbsp;&lt;div&gt;Customization&lt;/div&gt;&lt;div&gt;&amp;amp; Branding&lt;/div&gt;" style="shape=component;align=left;spacingLeft=36;rounded=0;shadow=0;comic=0;labelBackgroundColor=none;strokeWidth=1;fontFamily=Verdana;fontSize=12;html=1;" vertex="1" parent="1">
          <mxGeometry x="202.5" y="240" width="125" height="60" as="geometry" />
        </mxCell>
        <mxCell id="BYLP76rP4EXlYDDDYnYO-49" value="Page&amp;nbsp;&lt;div&gt;Moderation&lt;/div&gt;&lt;div&gt;&amp;amp; Security&lt;/div&gt;" style="shape=component;align=left;spacingLeft=36;rounded=0;shadow=0;comic=0;labelBackgroundColor=none;strokeWidth=1;fontFamily=Verdana;fontSize=12;html=1;" vertex="1" parent="1">
          <mxGeometry x="55" y="320" width="120" height="60" as="geometry" />
        </mxCell>
        <mxCell id="BYLP76rP4EXlYDDDYnYO-50" value="Page&amp;nbsp;&lt;div&gt;Events &amp;amp;&lt;/div&gt;&lt;div&gt;Scheduling&lt;/div&gt;" style="shape=component;align=left;spacingLeft=36;rounded=0;shadow=0;comic=0;labelBackgroundColor=none;strokeWidth=1;fontFamily=Verdana;fontSize=12;html=1;" vertex="1" parent="1">
          <mxGeometry x="205" y="320" width="122.5" height="60" as="geometry" />
        </mxCell>
        <mxCell id="BYLP76rP4EXlYDDDYnYO-51" value="Page Social&lt;div&gt;Intergrations&lt;/div&gt;" style="shape=component;align=left;spacingLeft=36;rounded=0;shadow=0;comic=0;labelBackgroundColor=none;strokeWidth=1;fontFamily=Verdana;fontSize=12;html=1;" vertex="1" parent="1">
          <mxGeometry x="52.5" y="400" width="122.5" height="60" as="geometry" />
        </mxCell>
        <mxCell id="BYLP76rP4EXlYDDDYnYO-52" value="Page Search&lt;div&gt;&amp;amp; Discovery&lt;/div&gt;" style="shape=component;align=left;spacingLeft=36;rounded=0;shadow=0;comic=0;labelBackgroundColor=none;strokeWidth=1;fontFamily=Verdana;fontSize=12;html=1;" vertex="1" parent="1">
          <mxGeometry x="55" y="240" width="125" height="60" as="geometry" />
        </mxCell>
        <mxCell id="BYLP76rP4EXlYDDDYnYO-53" value="Page&amp;nbsp;&lt;div&gt;Monetization&lt;/div&gt;" style="shape=component;align=left;spacingLeft=36;rounded=0;shadow=0;comic=0;labelBackgroundColor=none;strokeWidth=1;fontFamily=Verdana;fontSize=12;html=1;" vertex="1" parent="1">
          <mxGeometry x="125" y="480" width="125" height="60" as="geometry" />
        </mxCell>
        <mxCell id="BYLP76rP4EXlYDDDYnYO-55" value="Forums" style="verticalAlign=top;align=left;spacingTop=8;spacingLeft=2;spacingRight=12;shape=cube;size=10;direction=south;fontStyle=4;html=1;rounded=0;shadow=0;comic=0;labelBackgroundColor=none;strokeWidth=1;fontFamily=Verdana;fontSize=12" vertex="1" parent="1">
          <mxGeometry x="40" y="640" width="330" height="520" as="geometry" />
        </mxCell>
        <mxCell id="BYLP76rP4EXlYDDDYnYO-56" value="Forum&lt;div&gt;Catagories&lt;/div&gt;" style="shape=component;align=left;spacingLeft=36;rounded=0;shadow=0;comic=0;labelBackgroundColor=none;strokeWidth=1;fontFamily=Verdana;fontSize=12;html=1;" vertex="1" parent="1">
          <mxGeometry x="55" y="680" width="130" height="60" as="geometry" />
        </mxCell>
        <mxCell id="BYLP76rP4EXlYDDDYnYO-57" value="Forum&amp;nbsp;&lt;span style=&quot;background-color: transparent; color: light-dark(rgb(0, 0, 0), rgb(255, 255, 255));&quot;&gt;Topics&lt;/span&gt;" style="shape=component;align=left;spacingLeft=36;rounded=0;shadow=0;comic=0;labelBackgroundColor=none;strokeWidth=1;fontFamily=Verdana;fontSize=12;html=1;" vertex="1" parent="1">
          <mxGeometry x="220" y="680" width="130" height="60" as="geometry" />
        </mxCell>
        <mxCell id="BYLP76rP4EXlYDDDYnYO-58" value="Forum Posts" style="shape=component;align=left;spacingLeft=36;rounded=0;shadow=0;comic=0;labelBackgroundColor=none;strokeWidth=1;fontFamily=Verdana;fontSize=12;html=1;" vertex="1" parent="1">
          <mxGeometry x="55" y="760" width="130" height="60" as="geometry" />
        </mxCell>
        <mxCell id="BYLP76rP4EXlYDDDYnYO-59" value="Forum&amp;nbsp;&lt;div&gt;Moderation&lt;/div&gt;" style="shape=component;align=left;spacingLeft=36;rounded=0;shadow=0;comic=0;labelBackgroundColor=none;strokeWidth=1;fontFamily=Verdana;fontSize=12;html=1;" vertex="1" parent="1">
          <mxGeometry x="220" y="760" width="130" height="60" as="geometry" />
        </mxCell>
        <mxCell id="BYLP76rP4EXlYDDDYnYO-60" value="User&amp;nbsp;&lt;div&gt;Reputation&lt;/div&gt;&lt;div&gt;&amp;amp; Badges&lt;/div&gt;" style="shape=component;align=left;spacingLeft=36;rounded=0;shadow=0;comic=0;labelBackgroundColor=none;strokeWidth=1;fontFamily=Verdana;fontSize=12;html=1;" vertex="1" parent="1">
          <mxGeometry x="55" y="840" width="130" height="60" as="geometry" />
        </mxCell>
        <mxCell id="BYLP76rP4EXlYDDDYnYO-61" value="Search &amp;amp;&lt;div&gt;Filtering&lt;/div&gt;" style="shape=component;align=left;spacingLeft=36;rounded=0;shadow=0;comic=0;labelBackgroundColor=none;strokeWidth=1;fontFamily=Verdana;fontSize=12;html=1;" vertex="1" parent="1">
          <mxGeometry x="220" y="840" width="130" height="60" as="geometry" />
        </mxCell>
        <mxCell id="BYLP76rP4EXlYDDDYnYO-62" value="User Forum&lt;div&gt;Profiles &amp;amp;&lt;/div&gt;&lt;div&gt;Interaction&lt;/div&gt;" style="shape=component;align=left;spacingLeft=36;rounded=0;shadow=0;comic=0;labelBackgroundColor=none;strokeWidth=1;fontFamily=Verdana;fontSize=12;html=1;" vertex="1" parent="1">
          <mxGeometry x="220" y="1000" width="130" height="60" as="geometry" />
        </mxCell>
        <mxCell id="BYLP76rP4EXlYDDDYnYO-63" value="Forum&amp;nbsp;&lt;div&gt;Analytics&lt;/div&gt;" style="shape=component;align=left;spacingLeft=36;rounded=0;shadow=0;comic=0;labelBackgroundColor=none;strokeWidth=1;fontFamily=Verdana;fontSize=12;html=1;" vertex="1" parent="1">
          <mxGeometry x="220" y="920" width="130" height="60" as="geometry" />
        </mxCell>
        <mxCell id="BYLP76rP4EXlYDDDYnYO-64" value="Forum&amp;nbsp;&lt;div&gt;Permision &amp;amp;&lt;/div&gt;&lt;div&gt;Access Contr.&lt;/div&gt;" style="shape=component;align=left;spacingLeft=36;rounded=0;shadow=0;comic=0;labelBackgroundColor=none;strokeWidth=1;fontFamily=Verdana;fontSize=12;html=1;" vertex="1" parent="1">
          <mxGeometry x="55" y="1000" width="130" height="60" as="geometry" />
        </mxCell>
        <mxCell id="BYLP76rP4EXlYDDDYnYO-65" value="Forum&amp;nbsp;&lt;div&gt;Intergrations&lt;/div&gt;&lt;div&gt;&amp;amp; Eternal Tools&lt;/div&gt;" style="shape=component;align=left;spacingLeft=36;rounded=0;shadow=0;comic=0;labelBackgroundColor=none;strokeWidth=1;fontFamily=Verdana;fontSize=12;html=1;" vertex="1" parent="1">
          <mxGeometry x="55" y="920" width="130" height="60" as="geometry" />
        </mxCell>
        <mxCell id="BYLP76rP4EXlYDDDYnYO-66" value="Forum&amp;nbsp;&lt;div&gt;Customization&lt;/div&gt;" style="shape=component;align=left;spacingLeft=36;rounded=0;shadow=0;comic=0;labelBackgroundColor=none;strokeWidth=1;fontFamily=Verdana;fontSize=12;html=1;" vertex="1" parent="1">
          <mxGeometry x="140" y="1080" width="130" height="60" as="geometry" />
        </mxCell>
        <mxCell id="BYLP76rP4EXlYDDDYnYO-67" value="&lt;b&gt;Management/&lt;/b&gt;&lt;div&gt;&lt;b&gt;Repots&lt;/b&gt;&lt;/div&gt;&lt;div&gt;&lt;b&gt;(LVL 1)&lt;/b&gt;&lt;/div&gt;" style="ellipse;whiteSpace=wrap;html=1;aspect=fixed;" vertex="1" parent="1">
          <mxGeometry x="620" y="640" width="170" height="170" as="geometry" />
        </mxCell>
        <mxCell id="BYLP76rP4EXlYDDDYnYO-70" value="" style="ellipse;whiteSpace=wrap;html=1;align=center;aspect=fixed;fillColor=none;strokeColor=none;resizable=0;perimeter=centerPerimeter;rotatable=0;allowArrows=0;points=[];outlineConnect=1;" vertex="1" parent="1">
          <mxGeometry x="855" y="660" width="10" height="10" as="geometry" />
        </mxCell>
        <mxCell id="BYLP76rP4EXlYDDDYnYO-73" value="" style="ellipse;whiteSpace=wrap;html=1;align=center;aspect=fixed;fillColor=none;strokeColor=none;resizable=0;perimeter=centerPerimeter;rotatable=0;allowArrows=0;points=[];outlineConnect=1;" vertex="1" parent="1">
          <mxGeometry x="855" y="510" width="10" height="10" as="geometry" />
        </mxCell>
        <mxCell id="BYLP76rP4EXlYDDDYnYO-76" value="" style="ellipse;whiteSpace=wrap;html=1;align=center;aspect=fixed;fillColor=none;strokeColor=none;resizable=0;perimeter=centerPerimeter;rotatable=0;allowArrows=0;points=[];outlineConnect=1;" vertex="1" parent="1">
          <mxGeometry x="855" y="510" width="10" height="10" as="geometry" />
        </mxCell>
        <mxCell id="BYLP76rP4EXlYDDDYnYO-77" value="&lt;b&gt;Members/&lt;/b&gt;&lt;div&gt;&lt;b&gt;Account/&lt;/b&gt;&lt;/div&gt;&lt;div&gt;&lt;b&gt;Communication&lt;/b&gt;&lt;/div&gt;" style="ellipse;whiteSpace=wrap;html=1;aspect=fixed;" vertex="1" parent="1">
          <mxGeometry x="685" y="960" width="110" height="110" as="geometry" />
        </mxCell>
        <mxCell id="BYLP76rP4EXlYDDDYnYO-79" value="" style="rounded=0;orthogonalLoop=1;jettySize=auto;html=1;endArrow=halfCircle;endFill=0;endSize=6;strokeWidth=1;sketch=0;exitX=0;exitY=0;exitDx=0;exitDy=0;" edge="1" parent="1" source="BYLP76rP4EXlYDDDYnYO-67">
          <mxGeometry relative="1" as="geometry">
            <mxPoint x="880" y="515" as="sourcePoint" />
            <mxPoint x="400" y="200" as="targetPoint" />
            <Array as="points">
              <mxPoint x="645" y="560" />
              <mxPoint x="400" y="560" />
            </Array>
          </mxGeometry>
        </mxCell>
        <mxCell id="BYLP76rP4EXlYDDDYnYO-80" value="" style="rounded=0;orthogonalLoop=1;jettySize=auto;html=1;endArrow=oval;endFill=0;sketch=0;sourcePerimeterSpacing=0;targetPerimeterSpacing=0;endSize=10;exitX=0.994;exitY=0.673;exitDx=0;exitDy=0;exitPerimeter=0;" edge="1" parent="1" source="BYLP76rP4EXlYDDDYnYO-46">
          <mxGeometry relative="1" as="geometry">
            <mxPoint x="840" y="515" as="sourcePoint" />
            <mxPoint x="400" y="200" as="targetPoint" />
          </mxGeometry>
        </mxCell>
        <mxCell id="BYLP76rP4EXlYDDDYnYO-81" value="" style="ellipse;whiteSpace=wrap;html=1;align=center;aspect=fixed;fillColor=none;strokeColor=none;resizable=0;perimeter=centerPerimeter;rotatable=0;allowArrows=0;points=[];outlineConnect=1;" vertex="1" parent="1">
          <mxGeometry x="855" y="510" width="10" height="10" as="geometry" />
        </mxCell>
        <mxCell id="BYLP76rP4EXlYDDDYnYO-82" value="" style="rounded=0;orthogonalLoop=1;jettySize=auto;html=1;endArrow=halfCircle;endFill=0;endSize=6;strokeWidth=1;sketch=0;exitX=0.5;exitY=0;exitDx=0;exitDy=0;" edge="1" parent="1" source="BYLP76rP4EXlYDDDYnYO-67">
          <mxGeometry relative="1" as="geometry">
            <mxPoint x="820" y="385" as="sourcePoint" />
            <mxPoint x="640" y="440" as="targetPoint" />
            <Array as="points">
              <mxPoint x="705" y="440" />
            </Array>
          </mxGeometry>
        </mxCell>
        <mxCell id="BYLP76rP4EXlYDDDYnYO-83" value="" style="rounded=0;orthogonalLoop=1;jettySize=auto;html=1;endArrow=oval;endFill=0;sketch=0;sourcePerimeterSpacing=0;targetPerimeterSpacing=0;endSize=10;" edge="1" parent="1">
          <mxGeometry relative="1" as="geometry">
            <mxPoint x="640" y="370" as="sourcePoint" />
            <mxPoint x="640" y="440" as="targetPoint" />
          </mxGeometry>
        </mxCell>
        <mxCell id="BYLP76rP4EXlYDDDYnYO-84" value="" style="ellipse;whiteSpace=wrap;html=1;align=center;aspect=fixed;fillColor=none;strokeColor=none;resizable=0;perimeter=centerPerimeter;rotatable=0;allowArrows=0;points=[];outlineConnect=1;" vertex="1" parent="1">
          <mxGeometry x="795" y="380" width="10" height="10" as="geometry" />
        </mxCell>
        <mxCell id="BYLP76rP4EXlYDDDYnYO-85" value="" style="rounded=0;orthogonalLoop=1;jettySize=auto;html=1;endArrow=halfCircle;endFill=0;endSize=6;strokeWidth=1;sketch=0;exitX=1;exitY=0;exitDx=0;exitDy=0;" edge="1" parent="1" source="BYLP76rP4EXlYDDDYnYO-67">
          <mxGeometry relative="1" as="geometry">
            <mxPoint x="980" y="555" as="sourcePoint" />
            <mxPoint x="1080" y="520" as="targetPoint" />
            <Array as="points">
              <mxPoint x="765" y="520" />
            </Array>
          </mxGeometry>
        </mxCell>
        <mxCell id="BYLP76rP4EXlYDDDYnYO-86" value="" style="rounded=0;orthogonalLoop=1;jettySize=auto;html=1;endArrow=oval;endFill=0;sketch=0;sourcePerimeterSpacing=0;targetPerimeterSpacing=0;endSize=10;exitX=0.5;exitY=1;exitDx=0;exitDy=0;" edge="1" parent="1" source="maH7Wjx6wbgfMxvsLwRA-20">
          <mxGeometry relative="1" as="geometry">
            <mxPoint x="940" y="555" as="sourcePoint" />
            <mxPoint x="1080" y="520" as="targetPoint" />
            <Array as="points">
              <mxPoint x="1310" y="520" />
            </Array>
          </mxGeometry>
        </mxCell>
        <mxCell id="BYLP76rP4EXlYDDDYnYO-87" value="" style="ellipse;whiteSpace=wrap;html=1;align=center;aspect=fixed;fillColor=none;strokeColor=none;resizable=0;perimeter=centerPerimeter;rotatable=0;allowArrows=0;points=[];outlineConnect=1;" vertex="1" parent="1">
          <mxGeometry x="955" y="550" width="10" height="10" as="geometry" />
        </mxCell>
        <mxCell id="BYLP76rP4EXlYDDDYnYO-88" value="" style="rounded=0;orthogonalLoop=1;jettySize=auto;html=1;endArrow=halfCircle;endFill=0;endSize=6;strokeWidth=1;sketch=0;exitX=0.5;exitY=1;exitDx=0;exitDy=0;" edge="1" parent="1" source="BYLP76rP4EXlYDDDYnYO-77">
          <mxGeometry relative="1" as="geometry">
            <mxPoint x="790" y="1125" as="sourcePoint" />
            <mxPoint x="740" y="1120" as="targetPoint" />
          </mxGeometry>
        </mxCell>
        <mxCell id="BYLP76rP4EXlYDDDYnYO-89" value="" style="rounded=0;orthogonalLoop=1;jettySize=auto;html=1;endArrow=oval;endFill=0;sketch=0;sourcePerimeterSpacing=0;targetPerimeterSpacing=0;endSize=10;exitX=0.675;exitY=0.033;exitDx=0;exitDy=0;exitPerimeter=0;" edge="1" parent="1" source="BYLP76rP4EXlYDDDYnYO-10">
          <mxGeometry relative="1" as="geometry">
            <mxPoint x="750" y="1150" as="sourcePoint" />
            <mxPoint x="740" y="1120" as="targetPoint" />
          </mxGeometry>
        </mxCell>
        <mxCell id="BYLP76rP4EXlYDDDYnYO-90" value="" style="ellipse;whiteSpace=wrap;html=1;align=center;aspect=fixed;fillColor=none;strokeColor=none;resizable=0;perimeter=centerPerimeter;rotatable=0;allowArrows=0;points=[];outlineConnect=1;" vertex="1" parent="1">
          <mxGeometry x="765" y="1120" width="10" height="10" as="geometry" />
        </mxCell>
        <mxCell id="BYLP76rP4EXlYDDDYnYO-94" value="" style="rounded=0;orthogonalLoop=1;jettySize=auto;html=1;endArrow=halfCircle;endFill=0;endSize=6;strokeWidth=1;sketch=0;exitX=0;exitY=1;exitDx=0;exitDy=0;" edge="1" parent="1" source="BYLP76rP4EXlYDDDYnYO-67">
          <mxGeometry relative="1" as="geometry">
            <mxPoint x="550" y="905" as="sourcePoint" />
            <mxPoint x="440" y="930" as="targetPoint" />
            <Array as="points">
              <mxPoint x="440" y="785" />
            </Array>
          </mxGeometry>
        </mxCell>
        <mxCell id="BYLP76rP4EXlYDDDYnYO-95" value="" style="rounded=0;orthogonalLoop=1;jettySize=auto;html=1;endArrow=oval;endFill=0;sketch=0;sourcePerimeterSpacing=0;targetPerimeterSpacing=0;endSize=10;exitX=1.001;exitY=0.168;exitDx=0;exitDy=0;exitPerimeter=0;" edge="1" parent="1" source="BYLP76rP4EXlYDDDYnYO-63">
          <mxGeometry relative="1" as="geometry">
            <mxPoint x="350" y="960" as="sourcePoint" />
            <mxPoint x="440" y="930" as="targetPoint" />
          </mxGeometry>
        </mxCell>
        <mxCell id="BYLP76rP4EXlYDDDYnYO-96" value="" style="ellipse;whiteSpace=wrap;html=1;align=center;aspect=fixed;fillColor=none;strokeColor=none;resizable=0;perimeter=centerPerimeter;rotatable=0;allowArrows=0;points=[];outlineConnect=1;" vertex="1" parent="1">
          <mxGeometry x="525" y="900" width="10" height="10" as="geometry" />
        </mxCell>
        <mxCell id="BYLP76rP4EXlYDDDYnYO-97" value="" style="rounded=0;orthogonalLoop=1;jettySize=auto;html=1;endArrow=halfCircle;endFill=0;endSize=6;strokeWidth=1;sketch=0;exitX=0.5;exitY=1;exitDx=0;exitDy=0;" edge="1" parent="1" source="BYLP76rP4EXlYDDDYnYO-67">
          <mxGeometry relative="1" as="geometry">
            <mxPoint x="730" y="1285" as="sourcePoint" />
            <mxPoint x="440" y="1280" as="targetPoint" />
            <Array as="points">
              <mxPoint x="705" y="840" />
              <mxPoint x="600" y="840" />
              <mxPoint x="600" y="1080" />
              <mxPoint x="440" y="1080" />
            </Array>
          </mxGeometry>
        </mxCell>
        <mxCell id="BYLP76rP4EXlYDDDYnYO-98" value="" style="rounded=0;orthogonalLoop=1;jettySize=auto;html=1;endArrow=oval;endFill=0;sketch=0;sourcePerimeterSpacing=0;targetPerimeterSpacing=0;endSize=10;" edge="1" parent="1">
          <mxGeometry relative="1" as="geometry">
            <mxPoint x="350" y="1280" as="sourcePoint" />
            <mxPoint x="440" y="1280" as="targetPoint" />
          </mxGeometry>
        </mxCell>
        <mxCell id="BYLP76rP4EXlYDDDYnYO-99" value="" style="ellipse;whiteSpace=wrap;html=1;align=center;aspect=fixed;fillColor=none;strokeColor=none;resizable=0;perimeter=centerPerimeter;rotatable=0;allowArrows=0;points=[];outlineConnect=1;" vertex="1" parent="1">
          <mxGeometry x="705" y="1280" width="10" height="10" as="geometry" />
        </mxCell>
        <mxCell id="BYLP76rP4EXlYDDDYnYO-100" value="" style="rounded=0;orthogonalLoop=1;jettySize=auto;html=1;endArrow=halfCircle;endFill=0;endSize=6;strokeWidth=1;sketch=0;exitX=1;exitY=1;exitDx=0;exitDy=0;" edge="1" parent="1" source="BYLP76rP4EXlYDDDYnYO-67">
          <mxGeometry relative="1" as="geometry">
            <mxPoint x="1160" y="1015" as="sourcePoint" />
            <mxPoint x="1200" y="1240" as="targetPoint" />
            <Array as="points">
              <mxPoint x="800" y="785" />
              <mxPoint x="800" y="880" />
              <mxPoint x="1200" y="880" />
              <mxPoint x="1200" y="1040" />
            </Array>
          </mxGeometry>
        </mxCell>
        <mxCell id="BYLP76rP4EXlYDDDYnYO-101" value="" style="rounded=0;orthogonalLoop=1;jettySize=auto;html=1;endArrow=oval;endFill=0;sketch=0;sourcePerimeterSpacing=0;targetPerimeterSpacing=0;endSize=10;" edge="1" parent="1">
          <mxGeometry relative="1" as="geometry">
            <mxPoint x="1260" y="1260" as="sourcePoint" />
            <mxPoint x="1200" y="1240" as="targetPoint" />
            <Array as="points">
              <mxPoint x="1200" y="1260" />
            </Array>
          </mxGeometry>
        </mxCell>
        <mxCell id="BYLP76rP4EXlYDDDYnYO-102" value="" style="ellipse;whiteSpace=wrap;html=1;align=center;aspect=fixed;fillColor=none;strokeColor=none;resizable=0;perimeter=centerPerimeter;rotatable=0;allowArrows=0;points=[];outlineConnect=1;" vertex="1" parent="1">
          <mxGeometry x="1135" y="1010" width="10" height="10" as="geometry" />
        </mxCell>
        <mxCell id="BYLP76rP4EXlYDDDYnYO-103" value="" style="rounded=0;orthogonalLoop=1;jettySize=auto;html=1;endArrow=halfCircle;endFill=0;endSize=6;strokeWidth=1;sketch=0;exitX=0;exitY=0.112;exitDx=0;exitDy=0;exitPerimeter=0;" edge="1" parent="1" source="BYLP76rP4EXlYDDDYnYO-1">
          <mxGeometry relative="1" as="geometry">
            <mxPoint x="1240" y="845" as="sourcePoint" />
            <mxPoint x="1240" y="960" as="targetPoint" />
            <Array as="points">
              <mxPoint x="960" y="960" />
            </Array>
          </mxGeometry>
        </mxCell>
        <mxCell id="BYLP76rP4EXlYDDDYnYO-104" value="" style="rounded=0;orthogonalLoop=1;jettySize=auto;html=1;endArrow=oval;endFill=0;sketch=0;sourcePerimeterSpacing=0;targetPerimeterSpacing=0;endSize=10;exitX=0.849;exitY=1;exitDx=0;exitDy=0;exitPerimeter=0;" edge="1" parent="1" source="maH7Wjx6wbgfMxvsLwRA-21">
          <mxGeometry relative="1" as="geometry">
            <mxPoint x="1200" y="845" as="sourcePoint" />
            <mxPoint x="1240" y="960" as="targetPoint" />
          </mxGeometry>
        </mxCell>
        <mxCell id="BYLP76rP4EXlYDDDYnYO-105" value="" style="ellipse;whiteSpace=wrap;html=1;align=center;aspect=fixed;fillColor=none;strokeColor=none;resizable=0;perimeter=centerPerimeter;rotatable=0;allowArrows=0;points=[];outlineConnect=1;" vertex="1" parent="1">
          <mxGeometry x="1215" y="840" width="10" height="10" as="geometry" />
        </mxCell>
        <mxCell id="BYLP76rP4EXlYDDDYnYO-106" value="" style="rounded=0;orthogonalLoop=1;jettySize=auto;html=1;endArrow=halfCircle;endFill=0;endSize=6;strokeWidth=1;sketch=0;" edge="1" parent="1">
          <mxGeometry relative="1" as="geometry">
            <mxPoint x="880" y="1159" as="sourcePoint" />
            <mxPoint x="1000" y="400" as="targetPoint" />
            <Array as="points">
              <mxPoint x="880" y="760" />
              <mxPoint x="1000" y="760" />
            </Array>
          </mxGeometry>
        </mxCell>
        <mxCell id="BYLP76rP4EXlYDDDYnYO-107" value="" style="rounded=0;orthogonalLoop=1;jettySize=auto;html=1;endArrow=oval;endFill=0;sketch=0;sourcePerimeterSpacing=0;targetPerimeterSpacing=0;endSize=10;exitX=0.5;exitY=1;exitDx=0;exitDy=0;" edge="1" parent="1" source="maH7Wjx6wbgfMxvsLwRA-15">
          <mxGeometry relative="1" as="geometry">
            <mxPoint x="660" y="625" as="sourcePoint" />
            <mxPoint x="1000" y="400" as="targetPoint" />
            <Array as="points">
              <mxPoint x="1210" y="400" />
            </Array>
          </mxGeometry>
        </mxCell>
        <mxCell id="BYLP76rP4EXlYDDDYnYO-108" value="" style="ellipse;whiteSpace=wrap;html=1;align=center;aspect=fixed;fillColor=none;strokeColor=none;resizable=0;perimeter=centerPerimeter;rotatable=0;allowArrows=0;points=[];outlineConnect=1;" vertex="1" parent="1">
          <mxGeometry x="675" y="620" width="10" height="10" as="geometry" />
        </mxCell>
        <mxCell id="BYLP76rP4EXlYDDDYnYO-109" value="" style="rounded=0;orthogonalLoop=1;jettySize=auto;html=1;endArrow=halfCircle;endFill=0;endSize=6;strokeWidth=1;sketch=0;exitX=0.845;exitY=0.001;exitDx=0;exitDy=0;exitPerimeter=0;" edge="1" parent="1" source="BYLP76rP4EXlYDDDYnYO-1">
          <mxGeometry relative="1" as="geometry">
            <mxPoint x="1110" y="1465" as="sourcePoint" />
            <mxPoint x="1200" y="1600" as="targetPoint" />
          </mxGeometry>
        </mxCell>
        <mxCell id="BYLP76rP4EXlYDDDYnYO-110" value="" style="rounded=0;orthogonalLoop=1;jettySize=auto;html=1;endArrow=oval;endFill=0;sketch=0;sourcePerimeterSpacing=0;targetPerimeterSpacing=0;endSize=10;exitX=0.5;exitY=1;exitDx=0;exitDy=0;" edge="1" parent="1" source="BYLP76rP4EXlYDDDYnYO-39">
          <mxGeometry relative="1" as="geometry">
            <mxPoint x="1070" y="1465" as="sourcePoint" />
            <mxPoint x="1200" y="1600" as="targetPoint" />
            <Array as="points">
              <mxPoint x="1325" y="1600" />
            </Array>
          </mxGeometry>
        </mxCell>
        <mxCell id="BYLP76rP4EXlYDDDYnYO-111" value="" style="ellipse;whiteSpace=wrap;html=1;align=center;aspect=fixed;fillColor=none;strokeColor=none;resizable=0;perimeter=centerPerimeter;rotatable=0;allowArrows=0;points=[];outlineConnect=1;" vertex="1" parent="1">
          <mxGeometry x="1085" y="1460" width="10" height="10" as="geometry" />
        </mxCell>
        <mxCell id="BYLP76rP4EXlYDDDYnYO-112" value="" style="rounded=0;orthogonalLoop=1;jettySize=auto;html=1;endArrow=halfCircle;endFill=0;endSize=6;strokeWidth=1;sketch=0;exitX=0.579;exitY=0.999;exitDx=0;exitDy=0;exitPerimeter=0;" edge="1" parent="1" source="BYLP76rP4EXlYDDDYnYO-1">
          <mxGeometry relative="1" as="geometry">
            <mxPoint x="610" y="1395" as="sourcePoint" />
            <mxPoint x="480" y="1460" as="targetPoint" />
          </mxGeometry>
        </mxCell>
        <mxCell id="BYLP76rP4EXlYDDDYnYO-113" value="" style="rounded=0;orthogonalLoop=1;jettySize=auto;html=1;endArrow=oval;endFill=0;sketch=0;sourcePerimeterSpacing=0;targetPerimeterSpacing=0;endSize=10;exitX=0.996;exitY=0.673;exitDx=0;exitDy=0;exitPerimeter=0;" edge="1" parent="1" source="BYLP76rP4EXlYDDDYnYO-24">
          <mxGeometry relative="1" as="geometry">
            <mxPoint x="570" y="1395" as="sourcePoint" />
            <mxPoint x="480" y="1460" as="targetPoint" />
          </mxGeometry>
        </mxCell>
        <mxCell id="BYLP76rP4EXlYDDDYnYO-114" value="" style="ellipse;whiteSpace=wrap;html=1;align=center;aspect=fixed;fillColor=none;strokeColor=none;resizable=0;perimeter=centerPerimeter;rotatable=0;allowArrows=0;points=[];outlineConnect=1;" vertex="1" parent="1">
          <mxGeometry x="585" y="1390" width="10" height="10" as="geometry" />
        </mxCell>
        <mxCell id="BYLP76rP4EXlYDDDYnYO-115" value="" style="rounded=0;orthogonalLoop=1;jettySize=auto;html=1;endArrow=halfCircle;endFill=0;endSize=6;strokeWidth=1;sketch=0;exitX=1.006;exitY=0.179;exitDx=0;exitDy=0;exitPerimeter=0;" edge="1" parent="1" source="BYLP76rP4EXlYDDDYnYO-62">
          <mxGeometry relative="1" as="geometry">
            <mxPoint x="510" y="980" as="sourcePoint" />
            <mxPoint x="440" y="1010" as="targetPoint" />
          </mxGeometry>
        </mxCell>
        <mxCell id="BYLP76rP4EXlYDDDYnYO-116" value="" style="rounded=0;orthogonalLoop=1;jettySize=auto;html=1;endArrow=oval;endFill=0;sketch=0;sourcePerimeterSpacing=0;targetPerimeterSpacing=0;endSize=10;exitX=0.015;exitY=0.455;exitDx=0;exitDy=0;exitPerimeter=0;" edge="1" parent="1" source="BYLP76rP4EXlYDDDYnYO-77">
          <mxGeometry relative="1" as="geometry">
            <mxPoint x="350" y="1010" as="sourcePoint" />
            <mxPoint x="440" y="1010" as="targetPoint" />
          </mxGeometry>
        </mxCell>
        <mxCell id="BYLP76rP4EXlYDDDYnYO-117" value="" style="ellipse;whiteSpace=wrap;html=1;align=center;aspect=fixed;fillColor=none;strokeColor=none;resizable=0;perimeter=centerPerimeter;rotatable=0;allowArrows=0;points=[];outlineConnect=1;" vertex="1" parent="1">
          <mxGeometry x="665" y="1160" width="10" height="10" as="geometry" />
        </mxCell>
        <mxCell id="BYLP76rP4EXlYDDDYnYO-118" value="" style="rounded=0;orthogonalLoop=1;jettySize=auto;html=1;endArrow=halfCircle;endFill=0;endSize=6;strokeWidth=1;sketch=0;exitX=0.077;exitY=1;exitDx=0;exitDy=0;exitPerimeter=0;" edge="1" parent="1" source="BYLP76rP4EXlYDDDYnYO-1">
          <mxGeometry relative="1" as="geometry">
            <mxPoint x="490" y="1235" as="sourcePoint" />
            <mxPoint x="440" y="1040" as="targetPoint" />
            <Array as="points">
              <mxPoint x="520" y="1200" />
              <mxPoint x="520" y="1040" />
            </Array>
          </mxGeometry>
        </mxCell>
        <mxCell id="BYLP76rP4EXlYDDDYnYO-119" value="" style="rounded=0;orthogonalLoop=1;jettySize=auto;html=1;endArrow=oval;endFill=0;sketch=0;sourcePerimeterSpacing=0;targetPerimeterSpacing=0;endSize=10;exitX=0.999;exitY=0.668;exitDx=0;exitDy=0;exitPerimeter=0;" edge="1" parent="1" source="BYLP76rP4EXlYDDDYnYO-62">
          <mxGeometry relative="1" as="geometry">
            <mxPoint x="450" y="1235" as="sourcePoint" />
            <mxPoint x="440" y="1040" as="targetPoint" />
          </mxGeometry>
        </mxCell>
        <mxCell id="BYLP76rP4EXlYDDDYnYO-120" value="" style="ellipse;whiteSpace=wrap;html=1;align=center;aspect=fixed;fillColor=none;strokeColor=none;resizable=0;perimeter=centerPerimeter;rotatable=0;allowArrows=0;points=[];outlineConnect=1;" vertex="1" parent="1">
          <mxGeometry x="465" y="1230" width="10" height="10" as="geometry" />
        </mxCell>
        <mxCell id="BYLP76rP4EXlYDDDYnYO-121" value="" style="rounded=0;orthogonalLoop=1;jettySize=auto;html=1;endArrow=halfCircle;endFill=0;endSize=6;strokeWidth=1;sketch=0;exitX=0;exitY=0;exitDx=265;exitDy=360;exitPerimeter=0;" edge="1" parent="1" source="BYLP76rP4EXlYDDDYnYO-1">
          <mxGeometry relative="1" as="geometry">
            <mxPoint x="210" y="635" as="sourcePoint" />
            <mxPoint x="320" y="600" as="targetPoint" />
            <Array as="points">
              <mxPoint x="560" y="1425" />
              <mxPoint x="560" y="600" />
            </Array>
          </mxGeometry>
        </mxCell>
        <mxCell id="BYLP76rP4EXlYDDDYnYO-122" value="" style="rounded=0;orthogonalLoop=1;jettySize=auto;html=1;endArrow=oval;endFill=0;sketch=0;sourcePerimeterSpacing=0;targetPerimeterSpacing=0;endSize=10;exitX=0.938;exitY=0.997;exitDx=0;exitDy=0;exitPerimeter=0;" edge="1" parent="1" source="BYLP76rP4EXlYDDDYnYO-47">
          <mxGeometry relative="1" as="geometry">
            <mxPoint x="170" y="635" as="sourcePoint" />
            <mxPoint x="320" y="600" as="targetPoint" />
          </mxGeometry>
        </mxCell>
        <mxCell id="BYLP76rP4EXlYDDDYnYO-123" value="" style="ellipse;whiteSpace=wrap;html=1;align=center;aspect=fixed;fillColor=none;strokeColor=none;resizable=0;perimeter=centerPerimeter;rotatable=0;allowArrows=0;points=[];outlineConnect=1;" vertex="1" parent="1">
          <mxGeometry x="185" y="630" width="10" height="10" as="geometry" />
        </mxCell>
        <mxCell id="BYLP76rP4EXlYDDDYnYO-124" value="" style="rounded=0;orthogonalLoop=1;jettySize=auto;html=1;endArrow=halfCircle;endFill=0;endSize=6;strokeWidth=1;sketch=0;exitX=0.216;exitY=0.092;exitDx=0;exitDy=0;exitPerimeter=0;" edge="1" parent="1" source="BYLP76rP4EXlYDDDYnYO-77">
          <mxGeometry relative="1" as="geometry">
            <mxPoint x="700" y="1065" as="sourcePoint" />
            <mxPoint x="440" y="970" as="targetPoint" />
          </mxGeometry>
        </mxCell>
        <mxCell id="BYLP76rP4EXlYDDDYnYO-125" value="" style="rounded=0;orthogonalLoop=1;jettySize=auto;html=1;endArrow=oval;endFill=0;sketch=0;sourcePerimeterSpacing=0;targetPerimeterSpacing=0;endSize=10;exitX=0.996;exitY=0.834;exitDx=0;exitDy=0;exitPerimeter=0;" edge="1" parent="1" source="BYLP76rP4EXlYDDDYnYO-63">
          <mxGeometry relative="1" as="geometry">
            <mxPoint x="400" y="970" as="sourcePoint" />
            <mxPoint x="440" y="970" as="targetPoint" />
          </mxGeometry>
        </mxCell>
        <mxCell id="BYLP76rP4EXlYDDDYnYO-126" value="" style="ellipse;whiteSpace=wrap;html=1;align=center;aspect=fixed;fillColor=none;strokeColor=none;resizable=0;perimeter=centerPerimeter;rotatable=0;allowArrows=0;points=[];outlineConnect=1;" vertex="1" parent="1">
          <mxGeometry x="675" y="1060" width="10" height="10" as="geometry" />
        </mxCell>
      </root>
    </mxGraphModel>
  </diagram>
</mxfile>
